<svg width="80" height="80" viewBox="0 0 80 80" fill="none" xmlns="http://www.w3.org/2000/svg">
<path d="M15.3952 7.43364L10.3798 2.34807L6.90753 4.90839L2.06747 10.1693L7.8545 15.7108L5.85535 17.71L5.36433 18.9025L8.06494 21.2173H8.73132L10.8357 19.5338L20.3755 29.7049L19.2883 32.7212L17.9555 36.7546L18.0958 42.3312L20.6912 50.0121L27.4953 55.7641L44.0497 69.4425L48.1533 72.6692L50.9942 77.7197L52.9232 77.2638L77.2638 52.9232V51.0643L72.5991 48.2936L52.6075 23.3567L46.1541 19.3234L39.7007 17.8152L32.7913 18.7271L29.3542 20.6912L19.3233 10.3798L21.2173 8.06495L20.6912 6.27623L17.9555 5.36434L15.3952 7.43364Z" fill="#FFFFFA" fill-opacity="0.72"/>
<path d="M78.5615 51.6956C78.4563 50.9942 78.0705 50.433 77.4392 50.0823L72.9498 47.6272L55.0977 25.2507C48.9249 17.4996 37.1755 14.9743 29.6348 19.6741L20.5509 10.5551L21.4979 9.60817C21.9188 9.18729 22.1292 8.62613 22.1292 8.02989C22.1292 7.43365 21.8837 6.87248 21.4979 6.45161L20.4808 5.50464C20.0599 5.08377 19.4987 4.87333 18.9025 4.87333C18.3063 4.87333 17.7451 5.11884 17.3242 5.50464L15.7459 7.08292L12.0633 2.52344C11.6073 1.96228 10.9059 1.61155 10.1694 1.5414C9.43282 1.50633 8.69629 1.78691 8.1702 2.31301L2.31302 8.20525C1.78693 8.73135 1.50634 9.46788 1.54142 10.2044C1.57649 10.9409 1.92722 11.6424 2.52346 12.0983L7.08294 15.781L5.50466 17.3242C5.08378 17.7451 4.87334 18.3062 4.87334 18.9025C4.87334 19.4987 5.11885 20.0599 5.50466 20.4808L6.52177 21.4979C6.94264 21.9188 7.50381 22.1292 8.10005 22.1292C8.69629 22.1292 9.25746 21.8837 9.67833 21.4979L10.6253 20.5509L19.7443 29.6699C15.0796 38.1926 17.3593 48.7846 25.2858 55.1328L47.6623 72.9849L50.1174 77.4742C50.4681 78.0705 51.0293 78.4913 51.7307 78.5966C51.836 78.5966 51.9412 78.6316 52.0464 78.6316C52.6426 78.6316 53.2038 78.3861 53.6247 77.9652L77.9653 53.6247C78.4212 53.0635 78.6667 52.362 78.5615 51.6956ZM21.1472 29.9505L25.8119 25.2858C26.0924 25.0052 26.0924 24.5492 25.8119 24.2686C25.5313 23.9881 25.0753 23.9881 24.7948 24.2686L20.586 28.5125L11.6073 19.5338L19.5338 11.6073L28.5125 20.586L27.4954 21.6031C27.2148 21.8837 27.2148 22.3396 27.4954 22.6202C27.6357 22.7605 27.811 22.8307 28.0215 22.8307C28.1968 22.8307 28.4073 22.7605 28.5476 22.6202L30.0206 21.1472C36.965 16.4825 48.1533 18.7973 54.0105 26.1275L71.9327 48.6092C72.0029 48.6794 72.073 48.7495 72.1432 48.7846L76.7728 51.3098C76.9832 51.4151 77.1235 51.6255 77.1586 51.871C77.1937 52.1165 77.1235 52.362 76.9482 52.5374L52.6076 76.878C52.4322 77.0534 52.1867 77.1235 51.9412 77.0884C51.6957 77.0534 51.5203 76.9131 51.38 76.7026L48.8548 72.073C48.8197 72.0029 48.7495 71.9327 48.6794 71.8626L26.1977 53.9403C19.7092 48.8547 15.9564 38.9642 21.1472 29.9505ZM8.62614 20.4808C8.34556 20.7614 7.81947 20.7614 7.53888 20.4808L6.52177 19.4637C6.38148 19.3234 6.31133 19.1129 6.31133 18.9025C6.31133 18.6921 6.38148 18.5167 6.52177 18.3413L18.3764 6.52175C18.5167 6.38146 18.7271 6.31132 18.9376 6.31132C19.148 6.31132 19.3234 6.38146 19.4987 6.52175L20.4808 7.5038C20.6211 7.64409 20.6912 7.85452 20.6912 8.06496C20.6912 8.2754 20.6211 8.45076 20.4808 8.62613L8.62614 20.4808ZM8.10005 14.7288L3.43535 10.976C3.18984 10.7656 3.01448 10.4499 3.01448 10.1343C2.97941 9.78353 3.1197 9.46788 3.36521 9.25744L9.22238 3.33012C9.46789 3.08461 9.78355 2.97939 10.0992 2.97939C10.4499 3.01446 10.7305 3.15476 10.941 3.40027L14.7288 8.06496L8.10005 14.7288Z" fill="#809EA8"/>
<path d="M32.8615 28.758L30.4765 26.7237L27.0043 31.4235L24.9701 35.3166L25.6014 37.421L27.811 38.6485L42.3312 49.0652L52.5374 65.0233L54.1858 65.7248L58.1841 64.392L56.3253 58.4647L62.0772 61.0601L65.339 54.3261V53.0635L50.1174 43.1028L43.1028 34.5801L38.5784 26.7237L38.2627 25.9171L35.4569 26.5834L32.8615 28.758Z" fill="white"/>
<path d="M65.5144 52.1516C65.4793 52.1165 65.4442 52.0814 65.3741 52.0464L52.818 44.3303C52.1516 43.9095 51.5203 43.4535 50.9241 42.9274C52.9934 42.5065 57.3073 42.226 60.99 45.8735C61.1303 46.0138 61.3056 46.084 61.5161 46.084C61.6914 46.084 61.9019 46.0138 62.0422 45.8735C62.3227 45.593 62.3227 45.137 62.0422 44.8564C58.1841 40.9984 53.7299 40.9984 51.2397 41.4193C53.9754 37.1755 54.1508 33.1771 52.7478 31.2131C51.9412 30.0907 50.6435 29.6699 49.2756 30.1258C48.2234 30.4765 47.4869 31.178 47.031 32.1951C46.3295 33.8786 46.6101 36.2285 47.1713 38.2978L39.5254 26.3379C39.4201 26.1275 39.2798 25.9171 39.1045 25.7066C38.859 25.4611 38.403 25.1805 37.6665 25.2507C36.474 25.3559 34.8607 26.4432 33.3175 27.8461C31.5989 26.0223 31.4937 25.9171 31.4586 25.882C31.178 25.6716 30.7571 25.6715 30.5116 25.9171C30.2661 26.1626 24.1634 32.16 24.1284 36.1233C24.1284 37.0352 24.4089 37.8068 25.0052 38.403C25.2507 38.6485 25.5663 38.894 25.9872 39.0694L39.5955 47.9779C41.4894 49.2055 43.1028 50.889 44.2953 52.818L52.0113 65.3741C52.0464 65.4091 52.0815 65.4793 52.1165 65.5144C52.6777 66.0755 53.4142 66.3561 54.291 66.3561C55.4835 66.3561 56.8864 65.83 58.2894 64.7778C58.9908 64.2517 58.6752 63.2346 57.8334 60.9198C57.658 60.4288 57.4125 59.7975 57.2722 59.3065C57.9737 59.587 58.9908 60.1131 59.6221 60.4639C61.5511 61.481 62.0071 61.6914 62.463 61.1653C64.7428 58.605 67.4434 54.0806 65.5144 52.1516ZM60.2885 59.2363C57.5178 57.7983 56.5708 57.3774 55.9745 57.9737C55.4485 58.4998 55.694 59.2714 56.5006 61.4459C56.7462 62.1824 57.167 63.3048 57.2372 63.7958C55.9044 64.7077 54.1508 65.4091 53.2038 64.5674L45.5579 52.0814C44.9967 51.1695 44.3303 50.2927 43.5938 49.486C44.4356 48.7144 46.084 47.0309 49.5562 43.5237C50.3629 44.2602 51.2046 44.9266 52.1516 45.4877L64.6025 53.1336C65.3039 54.0105 63.9712 57.167 61.7265 59.8326C61.3056 59.7624 60.7445 59.4468 60.2885 59.2363ZM38.0523 26.7237L38.1926 26.9692C38.3329 27.4252 38.0523 28.2669 37.3859 29.3542C37.0352 29.9154 37.1404 30.7571 37.2807 31.7041C37.3508 32.1951 37.4561 33.0018 37.3859 33.1771C37.1755 33.4227 36.2636 33.3876 35.7375 33.3525C34.8957 33.3174 34.1592 33.2824 33.7033 33.7383C33.4577 33.9838 33.0369 34.4047 32.5108 34.8957L30.4766 33.1771C32.5459 30.3012 36.1934 26.864 37.8068 26.6887C37.912 26.6887 38.0172 26.6887 38.0523 26.7237ZM28.8983 32.8966C28.6878 33.2122 28.758 33.598 29.0386 33.8435L31.3884 35.8427C30.8624 36.2636 30.3012 36.6844 29.7049 37.0352C28.4073 37.8068 27.3901 38.0874 26.6536 37.8068L26.0223 37.3859C25.7417 37.0702 25.5663 36.6844 25.6014 36.1583C25.6014 33.598 29.1438 29.4244 31.0377 27.4603C31.3884 27.811 31.8444 28.302 32.3003 28.8281C30.8974 30.2661 29.6348 31.7742 28.8983 32.8966ZM30.4415 38.2627C31.7041 37.4911 33.0719 36.3688 34.6853 34.7905C34.8607 34.7554 35.3517 34.7554 35.7024 34.7905C36.6845 34.8256 37.8769 34.8957 38.5082 34.089C38.9993 33.4928 38.859 32.5108 38.7187 31.4937C38.6485 31.0377 38.5433 30.3012 38.6135 30.1258C38.9291 29.6348 39.1746 29.1788 39.35 28.7229L46.7504 40.2619C47.2765 41.0686 47.8727 41.8402 48.504 42.5416C46.3996 44.6811 43.664 47.4167 42.5767 48.504C41.9103 47.8727 41.1738 47.3115 40.4022 46.8205L28.6528 39.1045C29.1438 38.9642 29.7751 38.6836 30.4415 38.2627ZM51.5554 32.0548C52.5374 33.4227 52.5023 37.0702 49.6614 41.1738C48.7145 38.894 47.4869 34.8957 48.3637 32.7913C48.6443 32.16 49.0652 31.7392 49.7316 31.5287C49.9771 31.4586 50.1875 31.4235 50.3629 31.4235C50.8539 31.3884 51.2397 31.5989 51.5554 32.0548Z" fill="#84CDE7"/>
</svg>
