<svg width="16" height="16" viewBox="0 0 16 16" fill="none" xmlns="http://www.w3.org/2000/svg">
<path fill-rule="evenodd" clip-rule="evenodd" d="M9.13137 0.468629C9.75621 1.09347 9.75621 2.10653 9.13137 2.73137L3.86274 8L9.13137 13.2686C9.75621 13.8935 9.75621 14.9065 9.13137 15.5314C8.50653 16.1562 7.49347 16.1562 6.86863 15.5314L0.468629 9.13137C-0.15621 8.50653 -0.15621 7.49347 0.468629 6.86863L6.86863 0.468629C7.49347 -0.15621 8.50653 -0.15621 9.13137 0.468629Z" fill="#4B4538"/>
<path fill-rule="evenodd" clip-rule="evenodd" d="M2.38419e-08 8C2.38419e-08 7.11635 0.716344 6.4 1.6 6.4H14.4C15.2837 6.4 16 7.11635 16 8C16 8.88366 15.2837 9.6 14.4 9.6H1.6C0.716344 9.6 2.38419e-08 8.88366 2.38419e-08 8Z" fill="#4B4538"/>
</svg>
