<svg width="30" height="30" viewBox="0 0 30 30" fill="none" xmlns="http://www.w3.org/2000/svg">
<path d="M30 16.62V13.385C30 12.75 29.485 12.235 28.85 12.235H27.195C26.625 12.235 26.125 11.87 25.94 11.325C25.77 10.82 25.57 10.335 25.335 9.87C25.08 9.36 25.175 8.745 25.58 8.34L26.75 7.17C27.2 6.72 27.2 5.99 26.75 5.545L24.46 3.25C24.01 2.8 23.28 2.8 22.835 3.25L21.665 4.42C21.26 4.825 20.645 4.92 20.135 4.665C19.67 4.43 19.185 4.23 18.68 4.06C18.14 3.88 17.775 3.375 17.775 2.805V1.15C17.775 0.515 17.26 0 16.625 0H13.39C12.755 0 12.24 0.515 12.24 1.15V2.805C12.24 3.375 11.875 3.875 11.33 4.06C10.825 4.23 10.34 4.43 9.875 4.665C9.365 4.92 8.75 4.825 8.345 4.42L7.165 3.25C6.715 2.8 5.985 2.8 5.54 3.25L3.25 5.54C2.8 5.99 2.8 6.72 3.25 7.165L4.42 8.335C4.825 8.74 4.92 9.355 4.665 9.865C4.43 10.335 4.23 10.82 4.06 11.32C3.88 11.86 3.375 12.225 2.805 12.225H1.15C0.515 12.225 0 12.74 0 13.375V16.61C0 17.245 0.515 17.76 1.15 17.76H2.805C3.375 17.76 3.875 18.125 4.06 18.665C4.23 19.17 4.43 19.655 4.665 20.12C4.92 20.63 4.825 21.245 4.42 21.65L3.25 22.82C2.8 23.27 2.8 24 3.25 24.445L5.54 26.735C5.99 27.185 6.72 27.185 7.165 26.735L8.335 25.565C8.74 25.16 9.355 25.065 9.865 25.32C10.335 25.555 10.82 25.755 11.32 25.925C11.86 26.105 12.23 26.61 12.23 27.18V28.85C12.23 29.485 12.745 30 13.38 30H16.615C17.25 30 17.765 29.485 17.765 28.85V27.195C17.765 26.625 18.13 26.125 18.67 25.94C19.175 25.77 19.66 25.57 20.125 25.335C20.635 25.08 21.25 25.175 21.655 25.58L22.825 26.75C23.275 27.2 24.005 27.2 24.45 26.75L26.74 24.46C27.19 24.01 27.19 23.28 26.74 22.835L25.57 21.665C25.165 21.26 25.07 20.645 25.325 20.135C25.56 19.67 25.76 19.185 25.93 18.68C26.11 18.14 26.615 17.775 27.185 17.775H28.85C29.485 17.77 30 17.255 30 16.62ZM15 21C11.69 21 9 18.31 9 15C9 11.69 11.69 9 15 9C18.31 9 21 11.69 21 15C21 18.31 18.305 21 15 21Z" fill="#A2A2A2"/>
</svg>
