<svg width="30" height="30" viewBox="0 0 30 30" fill="none" xmlns="http://www.w3.org/2000/svg">
<path d="M29.9846 27.5304C29.0133 20.4122 22.9081 14.9314 15.5263 14.9314C14.8048 14.9314 14.0972 14.9869 13.3895 15.084L11.1139 8.71516C11.3776 8.2434 11.7938 7.85488 12.2934 7.68838C13.0149 7.42474 13.8058 7.57737 14.4163 8.07689C14.6106 8.22952 14.8603 8.27115 15.0685 8.20177C15.2905 8.16014 15.4708 7.96589 15.5402 7.6745C15.679 6.92522 16.2201 6.28695 16.9278 6.03719C17.5799 5.80131 18.3153 5.89843 18.9397 6.32858C19.1756 6.49508 19.5086 6.48121 19.7445 6.30082C19.9804 6.14819 20.0775 5.81518 19.9665 5.50992C19.9526 5.46829 19.9249 5.41279 19.8833 5.30179C18.2321 1.43052 13.4173 -0.359423 8.38046 1.00038L8.25558 0.639614C8.07519 0.140095 7.49242 -0.123539 6.96515 0.0568423C6.71539 0.140095 6.50726 0.334353 6.39626 0.570236C6.27138 0.819996 6.2575 1.08363 6.35463 1.34727L6.47951 1.69415C1.70633 3.81711 -0.88839 8.27115 0.277153 12.3644L0.291029 12.4199C0.304904 12.4616 0.31878 12.5032 0.31878 12.5032C0.415908 12.7946 0.693419 12.9749 0.99868 12.9749C0.99868 12.9749 0.99868 12.9749 1.01256 12.9749C1.31782 12.9472 1.58145 12.7391 1.65083 12.4754C1.85896 11.7678 2.34461 11.2128 3.01063 10.9907C3.73216 10.7271 4.55081 10.8797 5.13358 11.3793C5.31397 11.5319 5.5776 11.5874 5.81348 11.5041C6.03549 11.4209 6.21587 11.2266 6.27138 10.9769C6.41013 10.2276 6.9374 9.58932 7.65893 9.33956C8.15845 9.15918 8.71347 9.17306 9.21299 9.38119L11.3776 15.5142C5.95224 17.1237 1.83121 21.7859 1.05418 27.5304C0.915427 28.5849 1.73408 29.5284 2.78862 29.5284H15.5125H28.2363C29.3047 29.5284 30.1234 28.5849 29.9846 27.5304Z" fill="white"/>
</svg>
