<svg width="30" height="30" viewBox="0 0 30 30" fill="none" xmlns="http://www.w3.org/2000/svg">
<path d="M29.6 5.25462L19.6 2.25C19.5 2.25 19.3 2.25 19.2 2.25C18.1 2.95108 16.6 3.25154 15 3.25154C13.4 3.25154 11.9 2.95108 10.7 2.35015C10.6 2.25 10.5 2.25 10.4 2.25L0.4 5.25462C0.1 5.35477 0 5.55508 0 5.85554L1 11.8648C1 12.0651 1.3 12.2654 1.5 12.2654H6V26.7877C6 27.0882 6.2 27.2885 6.5 27.2885H23.5C23.8 27.2885 24 27.0882 24 26.7877V12.2654H28.5C28.7 12.2654 29 12.0651 29 11.8648L30 5.85554C30 5.55508 29.9 5.35477 29.6 5.25462Z" fill="#75B8CD"/>
</svg>
