<svg width="30" height="30" viewBox="0 0 30 30" fill="none" xmlns="http://www.w3.org/2000/svg">
<path d="M14.1438 0.778669L8.02718 6.66717C6.85091 7.80067 6.64417 7.96464 4.8049 7.96464H1.06934C0.484768 7.96464 0 8.44228 0 9.03398V20.6613C0 21.253 0.484768 21.7306 1.06934 21.7306H4.81203C6.6513 21.7306 6.85804 21.8946 8.03431 23.0281L14.1509 28.9166C14.8923 29.6295 15.4983 29.3728 15.4983 28.3463V1.34898C15.4912 0.322417 14.8852 0.0657752 14.1438 0.778669Z" fill="white"/>
<path d="M25.3434 1.76964C24.7517 1.06388 23.6966 0.964072 22.9909 1.55577C22.2851 2.14748 22.1853 3.20256 22.777 3.90832C28.0239 10.2032 27.9027 19.5991 22.4918 25.7585C21.8859 26.45 21.95 27.5051 22.6415 28.1182C22.9623 28.3962 23.3544 28.5317 23.7465 28.5317C24.2099 28.5317 24.6733 28.3392 25.0012 27.9614C28.1665 24.3613 29.9416 19.7274 29.9986 14.9083C30.0556 10.1105 28.4017 5.44105 25.3434 1.76964Z" fill="white"/>
<path d="M20.9234 6.28938C20.3673 5.5551 19.3194 5.40539 18.5851 5.96858C17.8508 6.52463 17.7082 7.57259 18.2643 8.30687C21.2156 12.1993 21.1087 17.5602 18.0076 21.3314C17.4231 22.0443 17.5229 23.0994 18.2358 23.684C18.5494 23.9406 18.9201 24.0618 19.298 24.0618C19.7827 24.0618 20.2604 23.8551 20.5883 23.4487C22.5559 21.0534 23.6751 18.0236 23.7322 14.9083C23.7821 11.8214 22.784 8.75599 20.9234 6.28938Z" fill="white"/>
</svg>
