<svg width="20" height="20" viewBox="0 0 20 20" fill="none" xmlns="http://www.w3.org/2000/svg">
<path d="M19.9948 1.28879C19.7078 2.13407 19.4208 2.97935 19.1391 3.82984C17.4329 8.94847 15.7266 14.0671 14.0204 19.191C13.8378 19.7388 13.4621 20.0101 12.9195 19.9997C12.4342 19.9893 12.0638 19.6762 11.9125 19.144C11.1089 16.3316 10.3002 13.5192 9.50185 10.7069C9.46532 10.5816 9.41315 10.5295 9.28792 10.4929C6.47554 9.69462 3.66316 8.88586 0.856004 8.08232C0.329009 7.93101 0.0107256 7.56577 0.000290042 7.08051C-0.0101455 6.53787 0.261179 6.15697 0.788173 5.98478C6.71034 4.00725 12.6273 2.03493 18.5495 0.0626132C18.6016 0.0469599 18.6538 0.0208711 18.7112 0C18.8521 0 18.9982 0 19.1391 0C19.5774 0.135662 19.8643 0.422639 20 0.860932C19.9948 1.00181 19.9948 1.14791 19.9948 1.28879ZM1.10646 7.0179C1.20038 7.04921 1.23168 7.05964 1.26821 7.07008C4.02841 7.86318 6.79383 8.65106 9.55403 9.44416C9.67404 9.48069 9.75752 9.47547 9.86187 9.37633C12.4395 6.78832 15.0222 4.21074 17.605 1.62794C17.6416 1.59142 17.6729 1.54968 17.7407 1.47663C12.1838 3.32894 6.6686 5.16559 1.10646 7.0179ZM12.956 18.8414C12.9717 18.8414 12.9821 18.8414 12.9978 18.8414C14.8344 13.3262 16.6711 7.81622 18.5129 2.30104C18.4973 2.28538 18.4816 2.27495 18.4608 2.25929C18.419 2.31669 18.3877 2.3793 18.3355 2.42626C15.7736 4.98819 13.2117 7.55533 10.6445 10.112C10.535 10.2216 10.5141 10.3155 10.5558 10.4668C11.2341 12.8253 11.9072 15.1785 12.5803 17.5369C12.7003 17.97 12.8308 18.4031 12.956 18.8414Z" fill="#61A1AD"/>
</svg>
