<svg width="48" height="48" viewBox="0 0 48 48" fill="none" xmlns="http://www.w3.org/2000/svg">
<path fill-rule="evenodd" clip-rule="evenodd" d="M2.56201 33.4457C4.55524 35.8913 7.17301 37.2071 10.3622 37.5394V38.1109C10.3622 39.09 10.3636 40.0692 10.3651 41.0483C10.3681 43.0065 10.371 44.9648 10.3622 46.9231C10.3622 47.3617 10.4951 47.7072 10.9336 47.8535C11.3322 47.9731 11.6245 47.7737 11.9036 47.4946C12.9584 46.4352 14.0131 45.3772 15.0674 44.3198L15.0767 44.3104C17.1937 42.187 19.3088 40.0655 21.4179 37.9381C21.6571 37.6856 21.8963 37.5926 22.2418 37.5926C27.0388 37.6059 31.8492 37.6191 36.6595 37.5926C37.4701 37.5926 38.2939 37.5128 39.0779 37.3533C44.2205 36.3166 47.9544 31.6513 47.888 26.3348C47.8453 23.1227 47.852 19.9051 47.8587 16.6856V16.6855V16.6847C47.8624 14.8954 47.8662 13.1056 47.8614 11.3157C47.8614 10.558 47.795 9.78715 47.6621 9.04284C46.7984 4.03202 42.1608 0.111084 37.0714 0.111084H10.9734C10.4419 0.111084 9.91038 0.150958 9.39214 0.243997C3.9307 1.22755 0.143565 5.75989 0.116989 11.2891C0.116989 12.9997 0.115512 14.7089 0.114035 16.4175L0.114033 16.419L0.114032 16.4205C0.111083 19.8354 0.108134 23.2483 0.116989 26.6671C0.130277 29.219 0.967432 31.4786 2.56201 33.4457ZM29.5636 18.8439C29.5534 20.1308 30.6418 21.2177 31.9289 21.2177C33.2312 21.231 34.3208 20.181 34.3341 18.8917C34.3601 17.6038 33.3168 16.5323 32.0265 16.4875C32.0036 16.4866 31.9807 16.4862 31.9577 16.486L31.9422 16.486C30.6399 16.486 29.5636 17.5493 29.5636 18.8385L29.5636 18.8439ZM26.3745 18.8519C26.3745 17.5502 25.2995 16.4874 23.9985 16.486L23.9958 16.486C22.7896 16.486 21.762 17.4024 21.6202 18.5588C21.6073 18.6636 21.6018 18.7702 21.604 18.8784C21.6305 20.18 22.7053 21.2295 24.0063 21.2177L24.0092 21.2177C25.2981 21.2177 26.3877 20.1411 26.3745 18.8519ZM13.6598 18.9661C13.7134 20.1883 14.7327 21.1834 15.9719 21.2168C15.9932 21.2174 16.0147 21.2177 16.0362 21.2177C16.0627 21.2177 16.0892 21.2173 16.1156 21.2164C17.3819 21.1747 18.4151 20.1411 18.4281 18.8651C18.4414 17.5626 17.3385 16.4727 16.0229 16.486C15.8575 16.4877 15.6959 16.5065 15.5399 16.5408C15.2353 16.6077 14.952 16.7333 14.7023 16.9046C14.0729 17.3366 13.6576 18.0593 13.6576 18.8651C13.6576 18.8989 13.6583 18.9326 13.6598 18.9661Z" fill="white"/>
</svg>
